<?xml version="1.0" encoding="iso-8859-1"?>
<!-- Uploaded to: SVG Repo, www.svgrepo.com, Generator: SVG Repo Mixer Tools -->
<!DOCTYPE svg PUBLIC "-//W3C//DTD SVG 1.1//EN" "http://www.w3.org/Graphics/SVG/1.1/DTD/svg11.dtd">
<svg fill="#000000" height="800px" width="800px" version="1.1" id="Capa_1" xmlns="http://www.w3.org/2000/svg" xmlns:xlink="http://www.w3.org/1999/xlink" 
	 viewBox="0 0 295 295" xml:space="preserve">
<g>
	<path d="M285.333,224.5H284V43.175c0-9.374-6.817-16.675-16.191-16.675H28.857C19.483,26.5,12,33.801,12,43.175V224.5h-1.667
		C4.811,224.5,0,228.977,0,234.5v24c0,5.523,4.811,10,10.333,10h275c5.523,0,9.667-4.477,9.667-10v-24
		C295,228.977,290.856,224.5,285.333,224.5z M42,56.5h212v165H42V56.5z M213.851,256.236c-5.18,0-9.38-4.199-9.38-9.38
		c0-5.18,4.199-9.38,9.38-9.38c5.18,0,9.38,4.199,9.38,9.38C223.23,252.036,219.031,256.236,213.851,256.236z M248.763,256.236
		c-5.18,0-9.38-4.199-9.38-9.38c0-5.18,4.199-9.38,9.38-9.38c5.18,0,9.38,4.199,9.38,9.38
		C258.143,252.036,253.944,256.236,248.763,256.236z"/>
	<path d="M131.162,156.416c1.587,0,3.213-0.523,4.726-1.515l46.912-30.723c2.534-1.658,3.984-4.182,3.984-6.922
		c0-2.741-1.455-5.265-3.988-6.923l-46.921-30.72c-1.513-0.99-3.127-1.513-4.712-1.513c-3.571,0-7.163,2.733-7.163,7.958v62.398
		C124,153.683,127.592,156.416,131.162,156.416z"/>
	<path d="M206.453,170.5H88.356c-8.284,0-15,6.716-15,15s6.716,15,15,15h118.097c8.284,0,15-6.716,15-15
		S214.737,170.5,206.453,170.5z"/>
</g>
</svg>